<svg xmlns="http://www.w3.org/2000/svg" xmlns:xlink="http://www.w3.org/1999/xlink" width="1024" zoomAndPan="magnify" viewBox="0 0 768 767.999994" height="1024" preserveAspectRatio="xMidYMid meet" version="1.2"><defs><clipPath id="1c301a4df2"><path d="M 26.570312 26.570312 L 741.320312 26.570312 L 741.320312 741.320312 L 26.570312 741.320312 Z M 26.570312 26.570312 "/></clipPath><clipPath id="c985d67183"><path d="M 383.945312 26.570312 C 186.574219 26.570312 26.570312 186.574219 26.570312 383.945312 C 26.570312 581.320312 186.574219 741.320312 383.945312 741.320312 C 581.320312 741.320312 741.320312 581.320312 741.320312 383.945312 C 741.320312 186.574219 581.320312 26.570312 383.945312 26.570312 Z M 383.945312 26.570312 "/></clipPath><linearGradient x1="-0.00000000959646" gradientTransform="matrix(14.892822,0,0,14.892822,0.000000142918,-0.0000145259)" y1="32" x2="63.999997" gradientUnits="userSpaceOnUse" y2="32" id="d999de2270"><stop style="stop-color:#5de0e6;stop-opacity:1;" offset="0"/><stop style="stop-color:#5ddfe6;stop-opacity:1;" offset="0.00390625"/><stop style="stop-color:#5cdfe6;stop-opacity:1;" offset="0.0078125"/><stop style="stop-color:#5cdee5;stop-opacity:1;" offset="0.0117188"/><stop style="stop-color:#5cdee5;stop-opacity:1;" offset="0.015625"/><stop style="stop-color:#5bdde5;stop-opacity:1;" offset="0.0195312"/><stop style="stop-color:#5bdce5;stop-opacity:1;" offset="0.0234375"/><stop style="stop-color:#5bdce4;stop-opacity:1;" offset="0.0273438"/><stop style="stop-color:#5adbe4;stop-opacity:1;" offset="0.03125"/><stop style="stop-color:#5adbe4;stop-opacity:1;" offset="0.0351562"/><stop style="stop-color:#59dae4;stop-opacity:1;" offset="0.0390625"/><stop style="stop-color:#59d9e4;stop-opacity:1;" offset="0.0429688"/><stop style="stop-color:#59d9e3;stop-opacity:1;" offset="0.046875"/><stop style="stop-color:#58d8e3;stop-opacity:1;" offset="0.0507813"/><stop style="stop-color:#58d8e3;stop-opacity:1;" offset="0.0546875"/><stop style="stop-color:#58d7e3;stop-opacity:1;" offset="0.0585938"/><stop style="stop-color:#57d7e2;stop-opacity:1;" offset="0.0625"/><stop style="stop-color:#57d6e2;stop-opacity:1;" offset="0.0664062"/><stop style="stop-color:#57d5e2;stop-opacity:1;" offset="0.0703125"/><stop style="stop-color:#56d5e2;stop-opacity:1;" offset="0.0742188"/><stop style="stop-color:#56d4e2;stop-opacity:1;" offset="0.078125"/><stop style="stop-color:#55d4e1;stop-opacity:1;" offset="0.0820312"/><stop style="stop-color:#55d3e1;stop-opacity:1;" offset="0.0859375"/><stop style="stop-color:#55d2e1;stop-opacity:1;" offset="0.0898438"/><stop style="stop-color:#54d2e1;stop-opacity:1;" offset="0.09375"/><stop style="stop-color:#54d1e0;stop-opacity:1;" offset="0.0976562"/><stop style="stop-color:#54d1e0;stop-opacity:1;" offset="0.101563"/><stop style="stop-color:#53d0e0;stop-opacity:1;" offset="0.105469"/><stop style="stop-color:#53cfe0;stop-opacity:1;" offset="0.109375"/><stop style="stop-color:#53cfe0;stop-opacity:1;" offset="0.113281"/><stop style="stop-color:#52cedf;stop-opacity:1;" offset="0.117188"/><stop style="stop-color:#52cedf;stop-opacity:1;" offset="0.121094"/><stop style="stop-color:#51cddf;stop-opacity:1;" offset="0.125"/><stop style="stop-color:#51cddf;stop-opacity:1;" offset="0.128906"/><stop style="stop-color:#51ccde;stop-opacity:1;" offset="0.132812"/><stop style="stop-color:#50cbde;stop-opacity:1;" offset="0.136719"/><stop style="stop-color:#50cbde;stop-opacity:1;" offset="0.140625"/><stop style="stop-color:#50cade;stop-opacity:1;" offset="0.144531"/><stop style="stop-color:#4fcade;stop-opacity:1;" offset="0.148438"/><stop style="stop-color:#4fc9dd;stop-opacity:1;" offset="0.152344"/><stop style="stop-color:#4fc8dd;stop-opacity:1;" offset="0.15625"/><stop style="stop-color:#4ec8dd;stop-opacity:1;" offset="0.160156"/><stop style="stop-color:#4ec7dd;stop-opacity:1;" offset="0.164062"/><stop style="stop-color:#4dc7dc;stop-opacity:1;" offset="0.167969"/><stop style="stop-color:#4dc6dc;stop-opacity:1;" offset="0.171875"/><stop style="stop-color:#4dc6dc;stop-opacity:1;" offset="0.175781"/><stop style="stop-color:#4cc5dc;stop-opacity:1;" offset="0.179688"/><stop style="stop-color:#4cc4dc;stop-opacity:1;" offset="0.183594"/><stop style="stop-color:#4cc4db;stop-opacity:1;" offset="0.1875"/><stop style="stop-color:#4bc3db;stop-opacity:1;" offset="0.191406"/><stop style="stop-color:#4bc3db;stop-opacity:1;" offset="0.195312"/><stop style="stop-color:#4bc2db;stop-opacity:1;" offset="0.199219"/><stop style="stop-color:#4ac1da;stop-opacity:1;" offset="0.203125"/><stop style="stop-color:#4ac1da;stop-opacity:1;" offset="0.207031"/><stop style="stop-color:#49c0da;stop-opacity:1;" offset="0.210938"/><stop style="stop-color:#49c0da;stop-opacity:1;" offset="0.214844"/><stop style="stop-color:#49bfda;stop-opacity:1;" offset="0.21875"/><stop style="stop-color:#48bfd9;stop-opacity:1;" offset="0.222656"/><stop style="stop-color:#48bed9;stop-opacity:1;" offset="0.226562"/><stop style="stop-color:#48bdd9;stop-opacity:1;" offset="0.230469"/><stop style="stop-color:#47bdd9;stop-opacity:1;" offset="0.234375"/><stop style="stop-color:#47bcd8;stop-opacity:1;" offset="0.238281"/><stop style="stop-color:#47bcd8;stop-opacity:1;" offset="0.242188"/><stop style="stop-color:#46bbd8;stop-opacity:1;" offset="0.246094"/><stop style="stop-color:#46bad8;stop-opacity:1;" offset="0.25"/><stop style="stop-color:#45bad8;stop-opacity:1;" offset="0.253906"/><stop style="stop-color:#45b9d7;stop-opacity:1;" offset="0.257812"/><stop style="stop-color:#45b9d7;stop-opacity:1;" offset="0.261719"/><stop style="stop-color:#44b8d7;stop-opacity:1;" offset="0.265625"/><stop style="stop-color:#44b7d7;stop-opacity:1;" offset="0.269531"/><stop style="stop-color:#44b7d6;stop-opacity:1;" offset="0.273438"/><stop style="stop-color:#43b6d6;stop-opacity:1;" offset="0.277344"/><stop style="stop-color:#43b6d6;stop-opacity:1;" offset="0.28125"/><stop style="stop-color:#43b5d6;stop-opacity:1;" offset="0.285156"/><stop style="stop-color:#42b5d5;stop-opacity:1;" offset="0.289062"/><stop style="stop-color:#42b4d5;stop-opacity:1;" offset="0.292969"/><stop style="stop-color:#41b3d5;stop-opacity:1;" offset="0.296875"/><stop style="stop-color:#41b3d5;stop-opacity:1;" offset="0.300781"/><stop style="stop-color:#41b2d5;stop-opacity:1;" offset="0.304688"/><stop style="stop-color:#40b2d4;stop-opacity:1;" offset="0.308594"/><stop style="stop-color:#40b1d4;stop-opacity:1;" offset="0.3125"/><stop style="stop-color:#40b0d4;stop-opacity:1;" offset="0.316406"/><stop style="stop-color:#3fb0d4;stop-opacity:1;" offset="0.320313"/><stop style="stop-color:#3fafd3;stop-opacity:1;" offset="0.324219"/><stop style="stop-color:#3fafd3;stop-opacity:1;" offset="0.328125"/><stop style="stop-color:#3eaed3;stop-opacity:1;" offset="0.332031"/><stop style="stop-color:#3eaed3;stop-opacity:1;" offset="0.335937"/><stop style="stop-color:#3dadd3;stop-opacity:1;" offset="0.339844"/><stop style="stop-color:#3dacd2;stop-opacity:1;" offset="0.34375"/><stop style="stop-color:#3dacd2;stop-opacity:1;" offset="0.347656"/><stop style="stop-color:#3cabd2;stop-opacity:1;" offset="0.351562"/><stop style="stop-color:#3cabd2;stop-opacity:1;" offset="0.355469"/><stop style="stop-color:#3caad1;stop-opacity:1;" offset="0.359375"/><stop style="stop-color:#3ba9d1;stop-opacity:1;" offset="0.363281"/><stop style="stop-color:#3ba9d1;stop-opacity:1;" offset="0.367188"/><stop style="stop-color:#3ba8d1;stop-opacity:1;" offset="0.371094"/><stop style="stop-color:#3aa8d1;stop-opacity:1;" offset="0.375"/><stop style="stop-color:#3aa7d0;stop-opacity:1;" offset="0.378906"/><stop style="stop-color:#39a6d0;stop-opacity:1;" offset="0.382812"/><stop style="stop-color:#39a6d0;stop-opacity:1;" offset="0.386719"/><stop style="stop-color:#39a5d0;stop-opacity:1;" offset="0.390625"/><stop style="stop-color:#38a5cf;stop-opacity:1;" offset="0.394531"/><stop style="stop-color:#38a4cf;stop-opacity:1;" offset="0.398438"/><stop style="stop-color:#38a4cf;stop-opacity:1;" offset="0.402344"/><stop style="stop-color:#37a3cf;stop-opacity:1;" offset="0.40625"/><stop style="stop-color:#37a2cf;stop-opacity:1;" offset="0.410156"/><stop style="stop-color:#37a2ce;stop-opacity:1;" offset="0.414063"/><stop style="stop-color:#36a1ce;stop-opacity:1;" offset="0.417969"/><stop style="stop-color:#36a1ce;stop-opacity:1;" offset="0.421875"/><stop style="stop-color:#35a0ce;stop-opacity:1;" offset="0.425781"/><stop style="stop-color:#359fcd;stop-opacity:1;" offset="0.429688"/><stop style="stop-color:#359fcd;stop-opacity:1;" offset="0.433594"/><stop style="stop-color:#349ecd;stop-opacity:1;" offset="0.4375"/><stop style="stop-color:#349ecd;stop-opacity:1;" offset="0.441406"/><stop style="stop-color:#349dcd;stop-opacity:1;" offset="0.445312"/><stop style="stop-color:#339dcc;stop-opacity:1;" offset="0.449219"/><stop style="stop-color:#339ccc;stop-opacity:1;" offset="0.453125"/><stop style="stop-color:#339bcc;stop-opacity:1;" offset="0.457031"/><stop style="stop-color:#329bcc;stop-opacity:1;" offset="0.460937"/><stop style="stop-color:#329acb;stop-opacity:1;" offset="0.464844"/><stop style="stop-color:#319acb;stop-opacity:1;" offset="0.46875"/><stop style="stop-color:#3199cb;stop-opacity:1;" offset="0.472656"/><stop style="stop-color:#3198cb;stop-opacity:1;" offset="0.476562"/><stop style="stop-color:#3098cb;stop-opacity:1;" offset="0.480469"/><stop style="stop-color:#3097ca;stop-opacity:1;" offset="0.484375"/><stop style="stop-color:#3097ca;stop-opacity:1;" offset="0.488281"/><stop style="stop-color:#2f96ca;stop-opacity:1;" offset="0.492188"/><stop style="stop-color:#2f96ca;stop-opacity:1;" offset="0.496094"/><stop style="stop-color:#2f95c9;stop-opacity:1;" offset="0.5"/><stop style="stop-color:#2e94c9;stop-opacity:1;" offset="0.503906"/><stop style="stop-color:#2e94c9;stop-opacity:1;" offset="0.507812"/><stop style="stop-color:#2d93c9;stop-opacity:1;" offset="0.511719"/><stop style="stop-color:#2d93c9;stop-opacity:1;" offset="0.515625"/><stop style="stop-color:#2d92c8;stop-opacity:1;" offset="0.519531"/><stop style="stop-color:#2c91c8;stop-opacity:1;" offset="0.523438"/><stop style="stop-color:#2c91c8;stop-opacity:1;" offset="0.527344"/><stop style="stop-color:#2c90c8;stop-opacity:1;" offset="0.53125"/><stop style="stop-color:#2b90c7;stop-opacity:1;" offset="0.535156"/><stop style="stop-color:#2b8fc7;stop-opacity:1;" offset="0.539062"/><stop style="stop-color:#2b8ec7;stop-opacity:1;" offset="0.542969"/><stop style="stop-color:#2a8ec7;stop-opacity:1;" offset="0.546875"/><stop style="stop-color:#2a8dc7;stop-opacity:1;" offset="0.550781"/><stop style="stop-color:#298dc6;stop-opacity:1;" offset="0.554688"/><stop style="stop-color:#298cc6;stop-opacity:1;" offset="0.558594"/><stop style="stop-color:#298cc6;stop-opacity:1;" offset="0.5625"/><stop style="stop-color:#288bc6;stop-opacity:1;" offset="0.566406"/><stop style="stop-color:#288ac5;stop-opacity:1;" offset="0.570312"/><stop style="stop-color:#288ac5;stop-opacity:1;" offset="0.574219"/><stop style="stop-color:#2789c5;stop-opacity:1;" offset="0.578125"/><stop style="stop-color:#2789c5;stop-opacity:1;" offset="0.582031"/><stop style="stop-color:#2788c5;stop-opacity:1;" offset="0.585937"/><stop style="stop-color:#2687c4;stop-opacity:1;" offset="0.589844"/><stop style="stop-color:#2687c4;stop-opacity:1;" offset="0.59375"/><stop style="stop-color:#2586c4;stop-opacity:1;" offset="0.597656"/><stop style="stop-color:#2586c4;stop-opacity:1;" offset="0.601562"/><stop style="stop-color:#2585c3;stop-opacity:1;" offset="0.605469"/><stop style="stop-color:#2485c3;stop-opacity:1;" offset="0.609375"/><stop style="stop-color:#2484c3;stop-opacity:1;" offset="0.613281"/><stop style="stop-color:#2483c3;stop-opacity:1;" offset="0.617188"/><stop style="stop-color:#2383c3;stop-opacity:1;" offset="0.621094"/><stop style="stop-color:#2382c2;stop-opacity:1;" offset="0.625"/><stop style="stop-color:#2382c2;stop-opacity:1;" offset="0.628906"/><stop style="stop-color:#2281c2;stop-opacity:1;" offset="0.632813"/><stop style="stop-color:#2280c2;stop-opacity:1;" offset="0.636719"/><stop style="stop-color:#2180c1;stop-opacity:1;" offset="0.640625"/><stop style="stop-color:#217fc1;stop-opacity:1;" offset="0.644531"/><stop style="stop-color:#217fc1;stop-opacity:1;" offset="0.648438"/><stop style="stop-color:#207ec1;stop-opacity:1;" offset="0.652344"/><stop style="stop-color:#207dc1;stop-opacity:1;" offset="0.65625"/><stop style="stop-color:#207dc0;stop-opacity:1;" offset="0.660156"/><stop style="stop-color:#1f7cc0;stop-opacity:1;" offset="0.664062"/><stop style="stop-color:#1f7cc0;stop-opacity:1;" offset="0.667969"/><stop style="stop-color:#1f7bc0;stop-opacity:1;" offset="0.671875"/><stop style="stop-color:#1e7bbf;stop-opacity:1;" offset="0.675781"/><stop style="stop-color:#1e7abf;stop-opacity:1;" offset="0.679688"/><stop style="stop-color:#1d79bf;stop-opacity:1;" offset="0.683594"/><stop style="stop-color:#1d79bf;stop-opacity:1;" offset="0.6875"/><stop style="stop-color:#1d78bf;stop-opacity:1;" offset="0.691406"/><stop style="stop-color:#1c78be;stop-opacity:1;" offset="0.695312"/><stop style="stop-color:#1c77be;stop-opacity:1;" offset="0.699219"/><stop style="stop-color:#1c76be;stop-opacity:1;" offset="0.703125"/><stop style="stop-color:#1b76be;stop-opacity:1;" offset="0.707031"/><stop style="stop-color:#1b75bd;stop-opacity:1;" offset="0.710938"/><stop style="stop-color:#1b75bd;stop-opacity:1;" offset="0.714844"/><stop style="stop-color:#1a74bd;stop-opacity:1;" offset="0.71875"/><stop style="stop-color:#1a74bd;stop-opacity:1;" offset="0.722656"/><stop style="stop-color:#1973bd;stop-opacity:1;" offset="0.726563"/><stop style="stop-color:#1972bc;stop-opacity:1;" offset="0.730469"/><stop style="stop-color:#1972bc;stop-opacity:1;" offset="0.734375"/><stop style="stop-color:#1871bc;stop-opacity:1;" offset="0.738281"/><stop style="stop-color:#1871bc;stop-opacity:1;" offset="0.742188"/><stop style="stop-color:#1870bb;stop-opacity:1;" offset="0.746094"/><stop style="stop-color:#176fbb;stop-opacity:1;" offset="0.75"/><stop style="stop-color:#176fbb;stop-opacity:1;" offset="0.753906"/><stop style="stop-color:#176ebb;stop-opacity:1;" offset="0.757812"/><stop style="stop-color:#166eba;stop-opacity:1;" offset="0.761719"/><stop style="stop-color:#166dba;stop-opacity:1;" offset="0.765625"/><stop style="stop-color:#156dba;stop-opacity:1;" offset="0.769531"/><stop style="stop-color:#156cba;stop-opacity:1;" offset="0.773438"/><stop style="stop-color:#156bba;stop-opacity:1;" offset="0.777344"/><stop style="stop-color:#146bb9;stop-opacity:1;" offset="0.78125"/><stop style="stop-color:#146ab9;stop-opacity:1;" offset="0.785156"/><stop style="stop-color:#146ab9;stop-opacity:1;" offset="0.789062"/><stop style="stop-color:#1369b9;stop-opacity:1;" offset="0.792969"/><stop style="stop-color:#1368b8;stop-opacity:1;" offset="0.796875"/><stop style="stop-color:#1368b8;stop-opacity:1;" offset="0.800781"/><stop style="stop-color:#1267b8;stop-opacity:1;" offset="0.804688"/><stop style="stop-color:#1267b8;stop-opacity:1;" offset="0.808594"/><stop style="stop-color:#1166b8;stop-opacity:1;" offset="0.8125"/><stop style="stop-color:#1165b7;stop-opacity:1;" offset="0.816406"/><stop style="stop-color:#1165b7;stop-opacity:1;" offset="0.820313"/><stop style="stop-color:#1064b7;stop-opacity:1;" offset="0.824219"/><stop style="stop-color:#1064b7;stop-opacity:1;" offset="0.828125"/><stop style="stop-color:#1063b6;stop-opacity:1;" offset="0.832031"/><stop style="stop-color:#0f63b6;stop-opacity:1;" offset="0.835938"/><stop style="stop-color:#0f62b6;stop-opacity:1;" offset="0.839844"/><stop style="stop-color:#0f61b6;stop-opacity:1;" offset="0.84375"/><stop style="stop-color:#0e61b6;stop-opacity:1;" offset="0.847656"/><stop style="stop-color:#0e60b5;stop-opacity:1;" offset="0.851562"/><stop style="stop-color:#0d60b5;stop-opacity:1;" offset="0.855469"/><stop style="stop-color:#0d5fb5;stop-opacity:1;" offset="0.859375"/><stop style="stop-color:#0d5eb5;stop-opacity:1;" offset="0.863281"/><stop style="stop-color:#0c5eb4;stop-opacity:1;" offset="0.867188"/><stop style="stop-color:#0c5db4;stop-opacity:1;" offset="0.871094"/><stop style="stop-color:#0c5db4;stop-opacity:1;" offset="0.875"/><stop style="stop-color:#0b5cb4;stop-opacity:1;" offset="0.878906"/><stop style="stop-color:#0b5cb4;stop-opacity:1;" offset="0.882812"/><stop style="stop-color:#0b5bb3;stop-opacity:1;" offset="0.886719"/><stop style="stop-color:#0a5ab3;stop-opacity:1;" offset="0.890625"/><stop style="stop-color:#0a5ab3;stop-opacity:1;" offset="0.894531"/><stop style="stop-color:#0959b3;stop-opacity:1;" offset="0.898438"/><stop style="stop-color:#0959b2;stop-opacity:1;" offset="0.902344"/><stop style="stop-color:#0958b2;stop-opacity:1;" offset="0.90625"/><stop style="stop-color:#0857b2;stop-opacity:1;" offset="0.910156"/><stop style="stop-color:#0857b2;stop-opacity:1;" offset="0.914062"/><stop style="stop-color:#0856b2;stop-opacity:1;" offset="0.917969"/><stop style="stop-color:#0756b1;stop-opacity:1;" offset="0.921875"/><stop style="stop-color:#0755b1;stop-opacity:1;" offset="0.925781"/><stop style="stop-color:#0754b1;stop-opacity:1;" offset="0.929687"/><stop style="stop-color:#0654b1;stop-opacity:1;" offset="0.933594"/><stop style="stop-color:#0653b0;stop-opacity:1;" offset="0.9375"/><stop style="stop-color:#0553b0;stop-opacity:1;" offset="0.941406"/><stop style="stop-color:#0552b0;stop-opacity:1;" offset="0.945312"/><stop style="stop-color:#0552b0;stop-opacity:1;" offset="0.949219"/><stop style="stop-color:#0451b0;stop-opacity:1;" offset="0.953125"/><stop style="stop-color:#0450af;stop-opacity:1;" offset="0.957031"/><stop style="stop-color:#0450af;stop-opacity:1;" offset="0.960938"/><stop style="stop-color:#034faf;stop-opacity:1;" offset="0.964844"/><stop style="stop-color:#034faf;stop-opacity:1;" offset="0.96875"/><stop style="stop-color:#034eae;stop-opacity:1;" offset="0.972656"/><stop style="stop-color:#024dae;stop-opacity:1;" offset="0.976562"/><stop style="stop-color:#024dae;stop-opacity:1;" offset="0.980469"/><stop style="stop-color:#014cae;stop-opacity:1;" offset="0.984375"/><stop style="stop-color:#014cae;stop-opacity:1;" offset="0.988281"/><stop style="stop-color:#014bad;stop-opacity:1;" offset="0.992188"/><stop style="stop-color:#004bad;stop-opacity:1;" offset="0.996094"/><stop style="stop-color:#004aad;stop-opacity:1;" offset="1"/></linearGradient><clipPath id="fd3102c534"><path d="M 152.300781 344.382812 L 233.789062 344.382812 L 233.789062 571 L 152.300781 571 Z M 152.300781 344.382812 "/></clipPath><clipPath id="1b71758b34"><path d="M 186.800781 344.382812 L 199.289062 344.382812 C 218.34375 344.382812 233.789062 359.828125 233.789062 378.882812 L 233.789062 536.429688 C 233.789062 555.484375 218.34375 570.929688 199.289062 570.929688 L 186.800781 570.929688 C 167.746094 570.929688 152.300781 555.484375 152.300781 536.429688 L 152.300781 378.882812 C 152.300781 359.828125 167.746094 344.382812 186.800781 344.382812 Z M 186.800781 344.382812 "/></clipPath><clipPath id="5dacca3aa8"><path d="M 152.300781 344.394531 L 234 344.394531 L 234 570.882812 L 152.300781 570.882812 Z M 152.300781 344.394531 "/></clipPath><clipPath id="6d6687e432"><path d="M 186.789062 344.394531 L 199.273438 344.394531 C 218.324219 344.394531 233.765625 359.835938 233.765625 378.882812 L 233.765625 536.378906 C 233.765625 555.429688 218.324219 570.871094 199.273438 570.871094 L 186.789062 570.871094 C 167.742188 570.871094 152.300781 555.429688 152.300781 536.378906 L 152.300781 378.882812 C 152.300781 359.835938 167.742188 344.394531 186.789062 344.394531 Z M 186.789062 344.394531 "/></clipPath><clipPath id="4fe57ea955"><path d="M 261.625 261.382812 L 343.113281 261.382812 L 343.113281 571 L 261.625 571 Z M 261.625 261.382812 "/></clipPath><clipPath id="39c4c794fc"><path d="M 296.125 261.382812 L 308.613281 261.382812 C 327.667969 261.382812 343.113281 276.828125 343.113281 295.882812 L 343.113281 536.429688 C 343.113281 555.484375 327.667969 570.929688 308.613281 570.929688 L 296.125 570.929688 C 277.070312 570.929688 261.625 555.484375 261.625 536.429688 L 261.625 295.882812 C 261.625 276.828125 277.070312 261.382812 296.125 261.382812 Z M 296.125 261.382812 "/></clipPath><clipPath id="f5d5f34e78"><path d="M 261.625 261.394531 L 343.375 261.394531 L 343.375 571 L 261.625 571 Z M 261.625 261.394531 "/></clipPath><clipPath id="fe95a828fe"><path d="M 296.121094 261.394531 L 308.609375 261.394531 C 327.660156 261.394531 343.105469 276.839844 343.105469 295.890625 L 343.105469 536.410156 C 343.105469 555.464844 327.660156 570.90625 308.609375 570.90625 L 296.121094 570.90625 C 277.070312 570.90625 261.625 555.464844 261.625 536.410156 L 261.625 295.890625 C 261.625 276.839844 277.070312 261.394531 296.121094 261.394531 Z M 296.121094 261.394531 "/></clipPath><clipPath id="f5f99e8b53"><path d="M 370.949219 402.007812 L 452.441406 402.007812 L 452.441406 571 L 370.949219 571 Z M 370.949219 402.007812 "/></clipPath><clipPath id="08bc5b79c1"><path d="M 405.449219 402.007812 L 417.941406 402.007812 C 436.992188 402.007812 452.441406 417.453125 452.441406 436.507812 L 452.441406 536.429688 C 452.441406 555.484375 436.992188 570.929688 417.941406 570.929688 L 405.449219 570.929688 C 386.398438 570.929688 370.949219 555.484375 370.949219 536.429688 L 370.949219 436.507812 C 370.949219 417.453125 386.398438 402.007812 405.449219 402.007812 Z M 405.449219 402.007812 "/></clipPath><clipPath id="daa620f7fa"><path d="M 370.949219 402.015625 L 452.699219 402.015625 L 452.699219 570.757812 L 370.949219 570.757812 Z M 370.949219 402.015625 "/></clipPath><clipPath id="1c744a8d61"><path d="M 405.414062 402.015625 L 417.890625 402.015625 C 436.921875 402.015625 452.351562 417.445312 452.351562 436.476562 L 452.351562 536.289062 C 452.351562 555.324219 436.921875 570.753906 417.890625 570.753906 L 405.414062 570.753906 C 386.378906 570.753906 370.949219 555.324219 370.949219 536.289062 L 370.949219 436.476562 C 370.949219 417.445312 386.378906 402.015625 405.414062 402.015625 Z M 405.414062 402.015625 "/></clipPath></defs><g id="0ffc13f64f"><rect x="0" width="768" y="0" height="767.999994" style="fill:#00215a;fill-opacity:1;stroke:none;"/><g clip-rule="nonzero" clip-path="url(#1c301a4df2)"><g clip-rule="nonzero" clip-path="url(#c985d67183)"><path style="fill:none;stroke-width:128;stroke-linecap:butt;stroke-linejoin:miter;stroke:url(#d999de2270);stroke-miterlimit:4;" d="M 476.567857 -0.00247795 C 213.367566 -0.00247795 -0.00245528 213.367544 -0.00245528 476.567834 C -0.00245528 739.773333 213.367566 953.138146 476.567857 953.138146 C 739.773356 953.138146 953.138169 739.773333 953.138169 476.567834 C 953.138169 213.367544 739.773356 -0.00247795 476.567857 -0.00247795 Z M 476.567857 -0.00247795 " transform="matrix(0.749889,0,0,0.749889,26.572154,26.572171)"/></g></g><g clip-rule="nonzero" clip-path="url(#fd3102c534)"><g clip-rule="nonzero" clip-path="url(#1b71758b34)"><path style=" stroke:none;fill-rule:nonzero;fill:#024bae;fill-opacity:1;" d="M 152.300781 344.382812 L 233.789062 344.382812 L 233.789062 571.023438 L 152.300781 571.023438 Z M 152.300781 344.382812 "/></g></g><g clip-rule="nonzero" clip-path="url(#5dacca3aa8)"><g clip-rule="nonzero" clip-path="url(#6d6687e432)"><path style="fill:none;stroke-width:40;stroke-linecap:butt;stroke-linejoin:miter;stroke:#ffffff;stroke-opacity:1;stroke-miterlimit:4;" d="M 45.99446 0.00223765 L 62.643739 0.00223765 C 88.050039 0.00223765 108.642842 20.595041 108.642842 45.996132 L 108.642842 256.034393 C 108.642842 281.440693 88.050039 302.033496 62.643739 302.033496 L 45.99446 302.033496 C 20.593369 302.033496 0.000565698 281.440693 0.000565698 256.034393 L 0.000565698 45.996132 C 0.000565698 20.595041 20.593369 0.00223765 45.99446 0.00223765 Z M 45.99446 0.00223765 " transform="matrix(0.749845,0,0,0.749845,152.300357,344.392853)"/></g></g><g clip-rule="nonzero" clip-path="url(#4fe57ea955)"><g clip-rule="nonzero" clip-path="url(#39c4c794fc)"><path style=" stroke:none;fill-rule:nonzero;fill:#024bae;fill-opacity:1;" d="M 261.625 261.382812 L 343.113281 261.382812 L 343.113281 570.789062 L 261.625 570.789062 Z M 261.625 261.382812 "/></g></g><g clip-rule="nonzero" clip-path="url(#f5d5f34e78)"><g clip-rule="nonzero" clip-path="url(#fe95a828fe)"><path style="fill:none;stroke-width:40;stroke-linecap:butt;stroke-linejoin:miter;stroke:#ffffff;stroke-opacity:1;stroke-miterlimit:4;" d="M 45.994352 -0.00127336 L 62.645394 -0.00127336 C 88.046437 -0.00127336 108.640188 20.592478 108.640188 45.993521 L 108.640188 366.686245 C 108.640188 392.092496 88.046437 412.681039 62.645394 412.681039 L 45.994352 412.681039 C 20.593309 412.681039 -0.000442207 392.092496 -0.000442207 366.686245 L -0.000442207 45.993521 C -0.000442207 20.592478 20.593309 -0.00127336 45.994352 -0.00127336 Z M 45.994352 -0.00127336 " transform="matrix(0.75,0,0,0.75,261.625332,261.395486)"/></g></g><g clip-rule="nonzero" clip-path="url(#f5f99e8b53)"><g clip-rule="nonzero" clip-path="url(#08bc5b79c1)"><path style=" stroke:none;fill-rule:nonzero;fill:#024bae;fill-opacity:1;" d="M 370.949219 402.007812 L 452.441406 402.007812 L 452.441406 571.035156 L 370.949219 571.035156 Z M 370.949219 402.007812 "/></g></g><g clip-rule="nonzero" clip-path="url(#daa620f7fa)"><g clip-rule="nonzero" clip-path="url(#1c744a8d61)"><path style="fill:none;stroke-width:40;stroke-linecap:butt;stroke-linejoin:miter;stroke:#ffffff;stroke-opacity:1;stroke-miterlimit:4;" d="M 45.996315 0.00142017 L 62.647906 0.00142017 C 88.047578 0.00142017 108.640497 20.59434 108.640497 45.994012 L 108.640497 179.20674 C 108.640497 204.611626 88.047578 225.204545 62.647906 225.204545 L 45.996315 225.204545 C 20.59143 225.204545 -0.00148984 204.611626 -0.00148984 179.20674 L -0.00148984 45.994012 C -0.00148984 20.59434 20.59143 0.00142017 45.996315 0.00142017 Z M 45.996315 0.00142017 " transform="matrix(0.749271,0,0,0.749271,370.950335,402.014561)"/></g></g><g style="fill:#ffffff;fill-opacity:1;"><g transform="translate(380.026069, 335.600622)"><path style="stroke:none" d="M 83.351562 43.15625 C 76.554688 43.15625 70.910156 40.828125 66.417969 36.175781 C 62.023438 31.625 59.824219 26.109375 59.824219 19.628906 L 59.824219 -27.898438 L 102.011719 12.453125 L 75.800781 11.691406 C 62.546875 11.308594 50.703125 9.554688 40.265625 6.433594 C 29.945312 3.347656 21.140625 -0.265625 13.84375 -4.40625 L 13.703125 -4.484375 L 13.5625 -4.570312 C 8.496094 -7.667969 4.914062 -11.6875 2.816406 -16.632812 C 0.867188 -21.230469 0.175781 -25.9375 0.742188 -30.753906 C 1.335938 -35.800781 3.21875 -40.210938 6.394531 -43.992188 C 9.75 -47.988281 13.980469 -50.542969 19.085938 -51.660156 C 24.480469 -52.839844 30.183594 -51.714844 36.191406 -48.277344 C 40.59375 -45.761719 46.535156 -43.3125 54.011719 -40.929688 C 61.171875 -38.648438 69.96875 -37.507812 80.394531 -37.507812 C 88.101562 -37.507812 94.148438 -38.355469 98.53125 -40.054688 C 102.160156 -41.457031 104.683594 -43.191406 106.109375 -45.253906 C 107.519531 -47.292969 108.222656 -49.6875 108.222656 -52.429688 C 108.222656 -54.496094 107.8125 -56.203125 106.992188 -57.554688 C 106.144531 -58.960938 104.453125 -60.347656 101.929688 -61.71875 C 98.683594 -63.484375 94.058594 -64.980469 88.046875 -66.214844 L 59.433594 -72.421875 C 41.105469 -76.449219 27.203125 -83.414062 17.722656 -93.316406 C 7.789062 -103.691406 2.824219 -117.039062 2.824219 -133.363281 C 2.824219 -145.863281 5.929688 -157.097656 12.148438 -167.0625 C 18.289062 -176.914062 26.808594 -184.773438 37.703125 -190.636719 C 48.292969 -196.339844 60.582031 -199.691406 74.566406 -200.691406 L 108.757812 -203.132812 L 59.824219 -166.433594 L 59.824219 -209.183594 C 59.824219 -215.664062 62.023438 -221.179688 66.417969 -225.734375 C 70.910156 -230.386719 76.554688 -232.710938 83.351562 -232.710938 C 89.898438 -232.710938 95.457031 -230.425781 100.027344 -225.859375 C 104.59375 -221.292969 106.878906 -215.734375 106.878906 -209.183594 L 106.878906 -166.242188 L 60.332031 -201.703125 L 91.382812 -200.980469 C 100.03125 -200.78125 109.417969 -199.105469 119.550781 -195.960938 C 129.960938 -192.726562 138.96875 -188.128906 146.574219 -182.167969 C 150.890625 -178.710938 153.808594 -174.632812 155.328125 -169.933594 C 156.839844 -165.242188 156.96875 -160.625 155.71875 -156.089844 C 154.484375 -151.613281 152.160156 -147.824219 148.75 -144.722656 C 145.109375 -141.414062 140.6875 -139.523438 135.484375 -139.050781 C 130.421875 -138.589844 125.085938 -139.960938 119.488281 -143.160156 C 114.941406 -145.824219 109.84375 -147.980469 104.1875 -149.628906 C 98.65625 -151.242188 91.890625 -152.046875 83.890625 -152.046875 C 74.730469 -152.046875 67.792969 -150.207031 63.074219 -146.519531 C 59.113281 -143.429688 57.136719 -139.402344 57.136719 -134.4375 C 57.136719 -131.265625 58.039062 -128.839844 59.84375 -127.160156 C 62.457031 -124.722656 67.628906 -122.628906 75.359375 -120.878906 L 104.609375 -114.441406 C 123.753906 -110.253906 138.054688 -103.371094 147.523438 -93.800781 C 157.53125 -83.683594 162.535156 -70.609375 162.535156 -54.582031 C 162.535156 -42.1875 159.390625 -31.167969 153.101562 -21.515625 C 146.949219 -12.070312 138.566406 -4.566406 127.964844 0.996094 C 117.769531 6.347656 106.027344 9.714844 92.734375 11.105469 L 66.539062 13.839844 L 106.878906 -30.742188 L 106.878906 19.628906 C 106.878906 26.109375 104.679688 31.625 100.285156 36.175781 C 95.792969 40.828125 90.148438 43.15625 83.351562 43.15625 Z M 83.351562 22.988281 C 84.441406 22.988281 85.25 22.714844 85.777344 22.167969 C 86.398438 21.523438 86.710938 20.675781 86.710938 19.628906 L 86.710938 -4.570312 L 96.796875 -4.570312 L 104.273438 2.195312 L 99.164062 7.839844 L 91.6875 1.074219 L 90.636719 -8.953125 C 101.367188 -10.074219 110.683594 -12.710938 118.59375 -16.859375 C 126.09375 -20.796875 131.964844 -26.019531 136.207031 -32.527344 C 140.316406 -38.832031 142.371094 -46.183594 142.371094 -54.582031 C 142.371094 -65.082031 139.308594 -73.429688 133.183594 -79.621094 C 126.515625 -86.363281 115.546875 -91.402344 100.273438 -94.746094 L 70.90625 -101.210938 C 59.636719 -103.761719 51.367188 -107.496094 46.09375 -112.40625 C 40.011719 -118.074219 36.96875 -125.417969 36.96875 -134.4375 C 36.96875 -145.960938 41.535156 -155.289062 50.660156 -162.414062 C 59.027344 -168.949219 70.101562 -172.214844 83.890625 -172.214844 C 93.8125 -172.214844 102.460938 -171.140625 109.835938 -168.988281 C 117.085938 -166.871094 123.640625 -164.101562 129.492188 -160.667969 C 131.417969 -159.566406 132.808594 -159.054688 133.660156 -159.132812 C 134.371094 -159.199219 134.878906 -159.367188 135.183594 -159.644531 C 135.714844 -160.128906 136.078125 -160.730469 136.277344 -161.453125 C 136.460938 -162.113281 136.414062 -162.875 136.132812 -163.742188 C 135.859375 -164.597656 135.191406 -165.449219 134.132812 -166.296875 C 128.472656 -170.730469 121.617188 -174.199219 113.566406 -176.703125 C 105.230469 -179.289062 97.683594 -180.664062 90.914062 -180.820312 L 91.148438 -190.902344 L 97.257812 -198.921875 L 102.90625 -194.621094 L 96.796875 -186.597656 L 86.710938 -186.597656 L 86.710938 -209.183594 C 86.710938 -210.164062 86.398438 -210.96875 85.765625 -211.601562 C 85.136719 -212.230469 84.332031 -212.546875 83.351562 -212.546875 C 82.261719 -212.546875 81.453125 -212.273438 80.925781 -211.726562 C 80.300781 -211.082031 79.992188 -210.234375 79.992188 -209.183594 L 79.992188 -186.597656 L 69.90625 -186.597656 L 63.859375 -194.664062 L 69.234375 -198.699219 L 75.285156 -190.632812 L 76.003906 -180.574219 C 64.894531 -179.78125 55.3125 -177.21875 47.261719 -172.882812 C 39.511719 -168.710938 33.511719 -163.210938 29.257812 -156.394531 C 25.078125 -149.691406 22.988281 -142.011719 22.988281 -133.363281 C 22.988281 -122.4375 26.089844 -113.738281 32.289062 -107.261719 C 38.941406 -100.316406 49.414062 -95.273438 63.710938 -92.128906 L 92.097656 -85.96875 C 100.070312 -84.332031 106.554688 -82.15625 111.558594 -79.4375 C 117.277344 -76.332031 121.503906 -72.519531 124.238281 -68.007812 C 127.003906 -63.445312 128.386719 -58.253906 128.386719 -52.429688 C 128.386719 -45.496094 126.492188 -39.285156 122.703125 -33.796875 C 118.929688 -28.328125 113.296875 -24.148438 105.8125 -21.25 C 99.085938 -18.644531 90.613281 -17.34375 80.394531 -17.34375 C 67.875 -17.34375 57.042969 -18.800781 47.890625 -21.71875 C 39.058594 -24.53125 31.824219 -27.550781 26.1875 -30.769531 C 25.167969 -31.351562 24.3125 -31.722656 23.621094 -31.882812 C 23.464844 -31.917969 23.34375 -31.9375 23.257812 -31.941406 C 23.285156 -31.9375 23.332031 -31.945312 23.394531 -31.960938 C 22.765625 -31.820312 22.246094 -31.507812 21.835938 -31.023438 C 21.25 -30.324219 20.890625 -29.449219 20.769531 -28.398438 C 20.617188 -27.121094 20.824219 -25.824219 21.382812 -24.507812 C 21.792969 -23.535156 22.691406 -22.625 24.078125 -21.777344 L 18.820312 -13.175781 L 23.796875 -21.945312 C 29.769531 -18.554688 37.183594 -15.535156 46.042969 -12.886719 C 54.785156 -10.273438 64.898438 -8.796875 76.382812 -8.464844 L 76.089844 1.613281 L 69.121094 8.898438 L 62.9375 2.984375 L 69.90625 -4.300781 L 79.992188 -4.300781 L 79.992188 19.628906 C 79.992188 20.675781 80.300781 21.523438 80.925781 22.167969 C 81.453125 22.714844 82.261719 22.988281 83.351562 22.988281 Z M 83.351562 22.988281 "/></g></g><g style="fill:#0cc0df;fill-opacity:1;"><g transform="translate(380.026069, 335.600622)"><path style="stroke:none" d="M 83.34375 33.078125 C 79.40625 33.078125 76.179688 31.773438 73.671875 29.171875 C 71.160156 26.578125 69.90625 23.394531 69.90625 19.625 L 69.90625 -4.296875 L 76.09375 1.609375 C 63.726562 1.253906 52.75 -0.351562 43.15625 -3.21875 C 33.5625 -6.09375 25.453125 -9.410156 18.828125 -13.171875 C 15.597656 -15.140625 13.351562 -17.601562 12.09375 -20.5625 C 10.84375 -23.519531 10.394531 -26.519531 10.75 -29.5625 C 11.113281 -32.613281 12.234375 -35.257812 14.109375 -37.5 C 15.992188 -39.75 18.367188 -41.1875 21.234375 -41.8125 C 24.109375 -42.4375 27.425781 -41.675781 31.1875 -39.53125 C 36.207031 -36.65625 42.796875 -33.914062 50.953125 -31.3125 C 59.109375 -28.71875 68.921875 -27.421875 80.390625 -27.421875 C 89.359375 -27.421875 96.617188 -28.492188 102.171875 -30.640625 C 107.722656 -32.796875 111.800781 -35.753906 114.40625 -39.515625 C 117.007812 -43.285156 118.3125 -47.59375 118.3125 -52.4375 C 118.3125 -56.375 117.410156 -59.820312 115.609375 -62.78125 C 113.816406 -65.738281 110.859375 -68.335938 106.734375 -70.578125 C 102.617188 -72.816406 97.066406 -74.65625 90.078125 -76.09375 L 61.578125 -82.28125 C 45.265625 -85.863281 33.070312 -91.863281 25 -100.28125 C 16.9375 -108.707031 12.90625 -119.734375 12.90625 -133.359375 C 12.90625 -143.929688 15.503906 -153.382812 20.703125 -161.71875 C 25.898438 -170.0625 33.160156 -176.738281 42.484375 -181.75 C 51.804688 -186.769531 62.738281 -189.726562 75.28125 -190.625 L 69.90625 -186.59375 L 69.90625 -209.1875 C 69.90625 -212.945312 71.160156 -216.125 73.671875 -218.71875 C 76.179688 -221.320312 79.40625 -222.625 83.34375 -222.625 C 87.113281 -222.625 90.296875 -221.320312 92.890625 -218.71875 C 95.492188 -216.125 96.796875 -212.945312 96.796875 -209.1875 L 96.796875 -186.59375 L 91.15625 -190.90625 C 98.851562 -190.71875 107.316406 -189.191406 116.546875 -186.328125 C 125.785156 -183.460938 133.722656 -179.429688 140.359375 -174.234375 C 143.046875 -172.078125 144.835938 -169.609375 145.734375 -166.828125 C 146.628906 -164.054688 146.71875 -161.367188 146 -158.765625 C 145.28125 -156.171875 143.9375 -153.976562 141.96875 -152.1875 C 140 -150.394531 137.535156 -149.363281 134.578125 -149.09375 C 131.617188 -148.820312 128.253906 -149.765625 124.484375 -151.921875 C 119.285156 -154.960938 113.457031 -157.421875 107 -159.296875 C 100.550781 -161.179688 92.847656 -162.125 83.890625 -162.125 C 72.421875 -162.125 63.410156 -159.570312 56.859375 -154.46875 C 50.316406 -149.363281 47.046875 -142.6875 47.046875 -134.4375 C 47.046875 -128.34375 49.019531 -123.457031 52.96875 -119.78125 C 56.914062 -116.101562 63.640625 -113.191406 73.140625 -111.046875 L 102.4375 -104.59375 C 119.644531 -100.832031 132.28125 -94.875 140.34375 -86.71875 C 148.414062 -78.5625 152.453125 -67.847656 152.453125 -54.578125 C 152.453125 -44.179688 149.851562 -34.992188 144.65625 -27.015625 C 139.457031 -19.046875 132.332031 -12.6875 123.28125 -7.9375 C 114.226562 -3.1875 103.695312 -0.179688 91.6875 1.078125 L 96.796875 -4.578125 L 96.796875 19.625 C 96.796875 23.394531 95.539062 26.578125 93.03125 29.171875 C 90.519531 31.773438 87.289062 33.078125 83.34375 33.078125 Z M 83.34375 33.078125 "/></g></g><path style="fill:none;stroke-width:105;stroke-linecap:round;stroke-linejoin:miter;stroke:#ffffff;stroke-opacity:1;stroke-miterlimit:4;" d="M 52.49776 52.498972 L 196.166301 52.498992 " transform="matrix(0.471354,0.583374,-0.583374,0.471354,466.287748,458.866845)"/><path style="fill:none;stroke-width:105;stroke-linecap:round;stroke-linejoin:miter;stroke:#ffffff;stroke-opacity:1;stroke-miterlimit:4;" d="M 52.499724 52.502915 L 377.881824 52.498828 " transform="matrix(-0.429551,0.614008,-0.614008,-0.429551,723.518991,389.051778)"/><path style="fill:none;stroke-width:73;stroke-linecap:round;stroke-linejoin:miter;stroke:#0cc0df;stroke-opacity:1;stroke-miterlimit:4;" d="M 36.498859 36.499013 L 177.865186 36.496639 " transform="matrix(0.479269,0.575253,-0.575253,0.479269,462.433084,474.968084)"/><path style="fill:none;stroke-width:73;stroke-linecap:round;stroke-linejoin:miter;stroke:#0cc0df;stroke-opacity:1;stroke-miterlimit:4;" d="M 36.500469 36.50054 L 358.991447 36.500963 " transform="matrix(-0.429384,0.613802,-0.613802,-0.429384,705.865864,393.522598)"/></g></svg>